HIERARCHY
ROOT hip
{
	OFFSET 0.000000 0.000000 0.000000 
	CHANNELS 6 Xposition Yposition Zposition Xrotation Zrotation Yrotation
	JOINT abdomen
	{
		OFFSET 0.000000 3.402643 0.000000 
		CHANNELS 3 Xrotation Zrotation Yrotation
		JOINT chest
		{
			OFFSET 0.000000 8.438565 -0.680529 
			CHANNELS 3 Xrotation Zrotation Yrotation
			JOINT neck
			{
				OFFSET 0.000000 10.207942 -0.272212 
				CHANNELS 3 Xrotation Zrotation Yrotation
				JOINT head
				{
					OFFSET 0.000000 3.130431 0.000000 
					CHANNELS 3 Xrotation Zrotation Yrotation
					End Site
					{
						OFFSET 0.000000 3.130435 0.000000 
					}
				}
			}
			JOINT lCollar
			{
				OFFSET 3.470700 6.669187 -0.816635 
				CHANNELS 3 Yrotation Zrotation Xrotation
				JOINT lShldr
				{
					OFFSET 3.198488 0.000000 0.000000 
					CHANNELS 3 Zrotation Yrotation Xrotation
					JOINT lForeArm
					{
						OFFSET 10.139888 0.000000 0.000000 
						CHANNELS 3 Yrotation Zrotation Xrotation
						JOINT lHand
						{
							OFFSET 8.370511 0.000000 0.000000 
							CHANNELS 3 Zrotation Yrotation Xrotation
							End Site
							{
								OFFSET 4.083176 0.000000 0.000000 
							}
						}
					}
				}
			}
			JOINT rCollar
			{
				OFFSET -3.470700 6.669187 -0.816635 
				CHANNELS 3 Yrotation Zrotation Xrotation
				JOINT rShldr
				{
					OFFSET -3.198488 0.000000 0.000000 
					CHANNELS 3 Zrotation Yrotation Xrotation
					JOINT rForeArm
					{
						OFFSET -10.139888 0.000000 0.000000 
						CHANNELS 3 Yrotation Zrotation Xrotation
						JOINT rHand
						{
							OFFSET -8.370511 0.000000 0.000000 
							CHANNELS 3 Zrotation Yrotation Xrotation
							End Site
							{
								OFFSET -4.083176 0.000000 0.000000 
							}
						}
					}
				}
			}
		}
	}
	JOINT lThigh
	{
		OFFSET 5.308129 -1.633274 1.361059 
		CHANNELS 3 Xrotation Zrotation Yrotation
		JOINT lShin
		{
			OFFSET -2.041588 -20.007561 0.000000 
			CHANNELS 3 Xrotation Zrotation Yrotation
			JOINT lFoot
			{
				OFFSET 0.000000 -19.190928 -1.224953 
				CHANNELS 3 Xrotation Yrotation Zrotation
				End Site
				{
					OFFSET 0.000000 -2.449906 4.627600 
				}
			}
		}
	}
	JOINT rThigh
	{
		OFFSET -5.308129 -1.633274 1.361059 
		CHANNELS 3 Xrotation Zrotation Yrotation
		JOINT rShin
		{
			OFFSET 2.041588 -20.007561 0.000000 
			CHANNELS 3 Xrotation Zrotation Yrotation
			JOINT rFoot
			{
				OFFSET 0.000000 -19.190928 -1.224953 
				CHANNELS 3 Xrotation Yrotation Zrotation
				End Site
				{
					OFFSET 0.000000 -2.449906 4.627600 
				}
			}
		}
	}
}
MOTION
Frames: 11
Frame Time: 0.033333
75.175507 52.293724 -45.848072 -4.052734 -16.494141 96.699219 24.882753 -16.189018 -9.897797 -22.714844 11.162110 -0.009765 51.063168 8.107644 2.471410 -30.263674 17.753906 -36.298828 2.000000 -2.000000 0.000000 -94.589844 21.416016 -23.785498 -49.343342 -1.652510 -1.885161 -0.353203 61.052986 -4.851324 -2.000000 2.000000 0.000000 64.111328 -34.863285 -25.396208 97.100586 -0.124377 -3.123330 80.093445 -28.636450 -47.505093 -21.118107 10.415930 13.686602 22.286266 -4.925433 -2.121678 -8.784792 5.290678 -0.310622 -15.514029 -2.119376 7.980087 17.894682 5.056699 1.756030 -8.434950 -0.355241 -1.766492 
75.208023 52.293724 -45.930347 -3.857421 -16.494141 96.296059 24.703760 -16.107706 -10.031111 -22.714844 11.162110 -0.009765 51.063168 8.107644 2.471410 -30.263674 17.753906 -36.474617 2.000000 -2.000000 0.000000 -94.619141 21.621094 -23.046875 -49.343342 -1.652510 -1.885161 -1.232881 61.005913 -6.127092 -2.000000 2.000000 0.000000 64.716797 -35.849613 -26.611328 96.749031 -0.114628 -3.122768 79.309059 -28.061829 -46.577538 -20.922201 10.415189 13.896194 21.954201 -4.935189 -2.085970 -8.671022 5.626555 -0.309192 -15.247567 -2.353486 8.540444 17.902941 5.101925 1.753388 -8.150384 -0.357704 -1.324913 
75.234985 52.309486 -46.026169 -3.857421 -16.494141 95.944496 24.696346 -15.950780 -9.945822 -22.714844 11.162110 -0.009765 51.063168 8.107644 2.471410 -30.224607 17.910156 -36.686447 2.000000 -2.000000 0.000000 -94.316406 21.894533 -22.158205 -49.519123 -1.652510 -1.885161 -1.657263 61.182869 -6.560900 -2.000000 2.000000 0.000000 65.439453 -37.216797 -27.964890 96.573250 -0.104878 -3.122205 79.191368 -28.201729 -46.222248 -20.544607 10.369284 14.282199 21.769819 -4.857296 -2.076461 -8.863717 5.633044 -0.263938 -15.294817 -2.412264 9.059643 17.907104 5.122555 1.765962 -8.149212 -0.377105 -1.312423 
75.264954 52.309486 -46.119076 -3.691406 -16.494141 95.553871 24.710812 -15.859341 -10.106607 -22.714844 11.162110 -0.009765 51.063168 8.107644 2.471410 -30.224607 17.910156 -36.862232 2.000000 -2.000000 0.000000 -94.316406 21.894533 -22.158205 -49.519123 -1.652510 -1.885161 -1.822824 61.163845 -6.861055 -2.000000 2.000000 0.000000 65.839844 -38.212891 -28.916016 95.869850 -0.066445 -3.110211 78.597321 -28.460503 -45.456116 -20.202782 10.066483 15.014554 21.934402 -4.837603 -2.077033 -9.014775 5.468933 0.032655 -15.503274 -2.373383 9.581641 17.905981 5.125486 1.776103 -7.986434 -0.434771 -1.090975 
75.286018 52.317371 -46.225887 -3.691406 -16.494141 95.202309 24.683203 -15.693282 -10.017982 -22.714844 11.162110 -0.009765 51.063168 8.107644 2.471410 -30.410156 17.958984 -37.343754 2.000000 -2.000000 0.000000 -94.130859 21.884766 -22.148439 -49.519123 -1.652510 -1.885161 -1.753612 61.134331 -7.057265 -2.000000 2.000000 0.000000 66.455078 -39.189453 -29.990236 95.518288 -0.056695 -3.109648 78.734558 -28.576204 -45.450207 -20.043055 9.887501 15.240931 21.593517 -4.935300 -2.055858 -8.659099 5.800802 0.019685 -15.422227 -2.646772 10.320612 17.887424 5.122497 1.744852 -7.967084 -0.424003 -1.107317 
75.303841 52.325245 -46.322395 -3.486328 -16.523600 94.792198 24.683203 -15.693282 -10.017982 -22.714844 11.162110 -0.009765 51.063168 8.107644 2.471410 -30.410156 17.958984 -37.519535 2.000000 -2.000000 0.000000 -94.238281 22.001951 -22.144781 -49.519123 -1.652510 -1.885161 -1.120186 60.956810 -6.549237 -2.000000 2.000000 0.000000 66.787109 -40.058590 -30.953543 94.990944 -0.007949 -3.106837 78.578072 -29.095554 -45.569126 -19.873375 9.883394 15.420259 21.448051 -4.960202 -2.038160 -8.919030 5.860263 -0.110479 -15.460920 -2.656534 10.661055 17.887424 5.122499 1.744853 -7.940113 -0.635026 -1.032779 
75.328133 52.317371 -46.434410 -3.300781 -16.503906 94.580078 24.689508 -15.614323 -10.173083 -22.714844 11.162110 -0.185547 51.063168 8.107644 2.471410 -30.410156 17.958984 -37.695316 2.000000 -2.000000 0.000000 -94.296875 22.187500 -22.164278 -49.519123 -1.652510 -1.885161 -1.050801 60.927349 -6.755211 -2.000000 2.000000 0.000000 67.812500 -41.035160 -32.418522 94.815163 -0.007949 -3.106838 77.738945 -28.870251 -46.855793 -19.692316 9.673342 15.815969 21.223829 -4.886706 -1.997325 -8.955392 5.966530 0.211175 -15.537436 -2.822653 11.353992 17.892229 5.101629 1.771991 -7.857841 -0.500928 -0.712929 
75.357758 52.333118 -46.554764 -3.300781 -16.503906 94.228516 24.497833 -15.460698 -10.078825 -22.714844 11.162110 -0.185547 51.063168 8.107644 2.471410 -30.410156 17.958984 -37.861332 2.000000 -2.000000 0.000000 -93.974609 22.041014 -22.060545 -49.355492 -1.941492 -1.976153 0.289957 60.749527 -5.242009 -2.000000 2.000000 0.000000 68.652344 -41.845703 -33.525391 94.817917 0.095179 -3.198670 77.125740 -28.619101 -48.980648 -19.528137 9.499222 16.061281 21.241947 -4.935266 -2.046014 -8.968126 6.083351 0.062212 -15.418420 -3.037241 11.738829 17.888821 5.116298 1.753719 -8.027678 -0.625212 -0.610600 
75.374763 52.333118 -46.668964 -3.300781 -16.503906 94.062500 24.512907 -15.372650 -10.230546 -22.714844 11.162110 -0.185547 51.063168 8.107644 2.471410 -30.410156 17.958984 -38.046875 2.000000 -2.000000 0.000000 -94.160156 22.031250 -21.588135 -48.991497 -1.661690 -1.874845 -0.783955 60.545918 -6.612042 -2.000000 2.000000 0.000000 69.257813 -42.851563 -34.609375 94.647499 -0.069827 -3.051749 77.014282 -28.162392 -50.397133 -19.364279 9.198441 16.765593 21.223501 -4.886704 -2.007049 -9.299917 5.951178 0.427312 -15.594689 -2.880854 11.873203 18.230297 4.898410 1.771134 -7.864639 -0.430667 -0.669960 
75.395828 52.333118 -46.797417 -3.144531 -16.503906 93.828125 24.486319 -15.212242 -10.154663 -22.714844 11.162110 -0.185547 51.063168 8.107644 2.471410 -30.410156 17.958984 -37.861332 2.000000 -2.000000 0.000000 -94.345703 21.953127 -21.894531 -48.827332 -1.949534 -1.946015 0.760644 60.710247 -5.063429 -2.000000 2.000000 0.000000 69.667969 -43.496094 -36.090706 94.126198 0.205800 -3.250958 77.411919 -29.076242 -50.091484 -19.213617 9.038348 16.783171 21.068241 -4.955183 -1.995803 -9.085703 5.999484 0.438254 -15.470433 -3.066929 12.256536 18.064487 5.106593 1.757424 -7.889402 -0.298513 -0.394763 
75.425468 52.341000 -46.921932 -3.144531 -16.503906 93.642578 24.510508 -15.120827 -10.313021 -22.714844 11.162110 -0.185547 51.063168 8.107644 2.471410 -30.429688 17.783201 -37.744141 2.000000 -2.000000 0.000000 -94.394531 21.826172 -22.089842 -48.827332 -1.949534 -1.946015 0.769216 60.524689 -5.053935 -2.000000 2.000000 0.000000 69.648438 -44.316406 -36.992188 93.601028 0.337044 -3.321612 78.733360 -29.731075 -49.146999 -19.018671 9.009163 17.158783 20.869345 -4.941050 -2.016089 -9.165211 6.441261 0.717110 -15.545905 -3.271283 12.826286 18.075884 5.025686 1.756638 -8.074226 -0.445127 -0.506195 
